<svg xmlns="http://www.w3.org/2000/svg" viewBox="0 0 1024 1024">
  <defs>
    <linearGradient id="b" x1="0%" x2="0%" y1="0%" y2="100%">
      <stop offset="0%" style="stop-color:#3b82f6;stop-opacity:1"/>
      <stop offset="50%" style="stop-color:#2563eb;stop-opacity:1"/>
      <stop offset="100%" style="stop-color:#1e40af;stop-opacity:1"/>
    </linearGradient>
    <linearGradient id="c" x1="0%" x2="0%" y1="0%" y2="100%">
      <stop offset="0%" style="stop-color:#22c55e;stop-opacity:1"/>
      <stop offset="50%" style="stop-color:#10b981;stop-opacity:1"/>
      <stop offset="100%" style="stop-color:#059669;stop-opacity:1"/>
    </linearGradient>
    <filter id="a">
      <feGaussianBlur in="SourceAlpha" stdDeviation="3"/>
      <feOffset dy="2" result="offsetblur"/>
      <feComponentTransfer>
        <feFuncA slope=".4" type="linear"/>
      </feComponentTransfer>
      <feMerge>
        <feMergeNode/>
        <feMergeNode in="SourceGraphic"/>
      </feMerge>
    </filter>
    <filter id="d">
      <feGaussianBlur in="SourceAlpha" stdDeviation="2"/>
      <feOffset dy="1" result="offsetblur"/>
      <feComponentTransfer>
        <feFuncA slope=".2" type="linear"/>
      </feComponentTransfer>
      <feMerge>
        <feMergeNode/>
        <feMergeNode in="SourceGraphic"/>
      </feMerge>
    </filter>
    <filter id="hexagon-shadow">
      <feGaussianBlur in="SourceAlpha" stdDeviation="4"/>
      <feOffset dy="3" result="offsetblur"/>
      <feComponentTransfer>
        <feFuncA slope=".15" type="linear"/>
      </feComponentTransfer>
      <feMerge>
        <feMergeNode/>
        <feMergeNode in="SourceGraphic"/>
      </feMerge>
    </filter>
  </defs>
  
  <!-- ⭐ HEXÁGONO DE FONDO - CAMBIA EL VALOR "450" PARA AJUSTAR TAMAÑO ⭐ -->
  <!-- Valores sugeridos: 400 (pequeño), 450 (medio), 500 (grande) -->
  <g filter="url(#hexagon-shadow)">
<polygon
  points="512,32 990,241 990,783 512,992 35,783 35,241"
  fill="#ffffff"
  stroke="#e5e7eb"
  stroke-width="2"
  class="hexagon-bg"
/>
  </g>
  <!-- Nota: El hexágono está centrado en 512,512 con radio de 450px -->
  <!-- Para cambiar tamaño, multiplica todas las coordenadas por tu factor deseado -->
  
  <!-- Logo original -->
  <circle cx="1024" cy="1024" r="500" fill="none"/>
  <g filter="url(#a)" transform="matrix(.1 0 0 -.1 0 1024)">
    <path fill="url(#b)" d="M5599 8166c-572-83-1055-389-1381-875-173-259-290-556-342-872-9-52-19-109-22-127l-5-32 418 2 417 3 13 63c50 249 181 499 352 672 133 134 273 216 456 267 90 25 116 28 255 27 172 0 251-15 397-75 162-68 357-229 456-377 96-143 182-354 209-510l12-72h806v36c0 60-39 293-71 416-107 427-305 767-589 1016-243 212-558 365-875 423-144 26-379 33-506 15"/>
    <path fill="url(#c)" d="M2390 6621c0-41 42-271 70-381 103-408 268-713 537-986 284-289 640-470 1063-539 594-96 1207 104 1664 545 284 274 464 568 580 951 34 115 86 356 86 404v25h-815l-38-118c-136-423-410-726-767-850-127-44-210-57-360-56-322 1-592 115-826 349-165 164-293 383-347 589l-22 86h-412c-401 0-413-1-413-19"/>
    <g class="logo-text" fill="#1e293b" filter="url(#d)">
      <path d="M1273 3559c-304-51-504-332-478-674 12-171 45-264 131-377 127-165 365-242 596-193 139 29 244 98 314 206 37 57 84 168 84 199 0 6-47 10-130 10h-131l-18-43c-27-62-108-132-172-147-120-29-254 15-322 105-71 95-102 263-73 407 35 180 131 273 290 285 121 9 225-47 276-148l20-39h259l-16 53c-25 86-62 148-127 212-124 124-307 177-503 144m5173 0c-224-37-396-192-456-412-19-66-23-107-23-212 0-147 16-218 69-327 119-238 406-359 687-288 201 51 340 179 411 380 29 80 30 93 30 235 0 135-3 158-27 231-33 101-86 183-163 254-131 120-329 173-528 139m259-250c124-58 195-197 195-382 0-186-88-338-221-380-112-37-251-11-330 60-157 142-158 510-3 653 68 63 125 81 234 76 52-3 91-11 125-27m-4605-374v-615h850v230h-600v290h500v200h-500v280h590v230h-840zm1090 0v-615h260v450h187l139-225 139-225h296l-37 58c-21 31-71 111-111 177-41 66-92 145-113 177l-38 56 63 31c128 63 195 179 195 335 0 199-104 329-305 381-47 12-122 15-367 15h-308zm586 380c173-51 165-286-11-334-22-6-102-11-177-11h-138v360h138c93 0 155-5 188-15m634-380v-615h260v805l53-100c30-55 84-156 122-225 37-69 86-158 107-198l40-73 87 3 86 3 93 170c52 94 123 226 158 294 35 69 65 126 67 127 1 1 1-180-1-402l-2-404h260v1230h-268l-163-297c-89-164-177-324-195-357l-32-58-58 105c-33 57-122 217-199 355l-140 251-137 1h-138zm2990 298c0-175 0-451-1-613v-295l125-3 126-3 2 417 3 416 97-144c54-79 182-264 286-413l189-270 127-3 126-3v1231h-260l-2-396-3-396-116 163c-64 90-189 269-279 397l-162 232h-258zm1270 202v-115h350V2320h260v1000h370v230h-980z"/>
    </g>
  </g>
</svg>
