  <svg
              class="cermont-icon fill-current"
              width="25"
              height="24"
              viewBox="0 0 25 24"
              fill="none"
              xmlns="http://www.w3.org/2000/svg"
            >
  <style>
    .cermont-icon {
      overflow: visible;
      transition: all 0.3s cubic-bezier(0.4, 0, 0.2, 1);
      transform-origin: center;
    }
    .cermont-icon:hover {
      transform: scale(1.08);
      filter: drop-shadow(0 4px 6px rgba(0,0,0,0.1));
    }
    @media (prefers-color-scheme: dark) {
      .cermont-icon:hover {
        filter: drop-shadow(0 0 8px rgba(255,255,255,0.2));
      }
    }
  </style>
              <path
                fill-rule="evenodd"
                clip-rule="evenodd"
                d="M12.6686 16.75C12.4526 16.75 12.2579 16.6587 12.1211 16.5126L7.5115 11.9059C7.21851 11.6131 7.21836 11.1382 7.51116 10.8452C7.80396 10.5523 8.27883 10.5521 8.57182 10.8449L11.9186 14.1896V4C11.9186 3.58579 12.2544 3.25 12.6686 3.25C13.0828 3.25 13.4186 3.58579 13.4186 4V14.1854L16.7615 10.8449C17.0545 10.5521 17.5294 10.5523 17.8222 10.8453C18.115 11.1383 18.1148 11.6131 17.8218 11.9059L13.2469 16.4776C13.1093 16.644 12.9013 16.75 12.6686 16.75ZM5.41663 16C5.41663 15.5858 5.08084 15.25 4.66663 15.25C4.25241 15.25 3.91663 15.5858 3.91663 16V18.5C3.91663 19.7426 4.92399 20.75 6.16663 20.75H19.1675C20.4101 20.75 21.4175 19.7426 21.4175 18.5V16C21.4175 15.5858 21.0817 15.25 20.6675 15.25C20.2533 15.25 19.9175 15.5858 19.9175 16V18.5C19.9175 18.9142 19.5817 19.25 19.1675 19.25H6.16663C5.75241 19.25 5.41663 18.9142 5.41663 18.5V16Z"
                fill="currentColor"
              />
            </svg>