<svg class="cermont-icon"
                
                width="24"
                height="24"
                viewBox="0 0 24 24"
                fill="none"
                xmlns="http://www.w3.org/2000/svg"
              >
  <style>
    .cermont-icon {
      overflow: visible;
      transition: all 0.3s cubic-bezier(0.4, 0, 0.2, 1);
      transform-origin: center;
    }
    .cermont-icon:hover {
      transform: scale(1.08);
      filter: drop-shadow(0 4px 6px rgba(0,0,0,0.1));
    }
    @media (prefers-color-scheme: dark) {
      .cermont-icon:hover {
        filter: drop-shadow(0 0 8px rgba(255,255,255,0.2));
      }
    }
  </style>
                <path
                  fill-rule="evenodd"
                  clip-rule="evenodd"
                  d="M5.99915 10.2451C6.96564 10.2451 7.74915 11.0286 7.74915 11.9951V12.0051C7.74915 12.9716 6.96564 13.7551 5.99915 13.7551C5.03265 13.7551 4.24915 12.9716 4.24915 12.0051V11.9951C4.24915 11.0286 5.03265 10.2451 5.99915 10.2451ZM17.9991 10.2451C18.9656 10.2451 19.7491 11.0286 19.7491 11.9951V12.0051C19.7491 12.9716 18.9656 13.7551 17.9991 13.7551C17.0326 13.7551 16.2491 12.9716 16.2491 12.0051V11.9951C16.2491 11.0286 17.0326 10.2451 17.9991 10.2451ZM13.7491 11.9951C13.7491 11.0286 12.9656 10.2451 11.9991 10.2451C11.0326 10.2451 10.2491 11.0286 10.2491 11.9951V12.0051C10.2491 12.9716 11.0326 13.7551 11.9991 13.7551C12.9656 13.7551 13.7491 12.9716 13.7491 12.0051V11.9951Z"
                  fill="currentColor"
                />
              </svg>