<svg xmlns="http://www.w3.org/2000/svg" viewBox="0 0 1440 900" fill="none" role="img" aria-labelledby="title desc">
  <title id="title">Cermont Campo dashboard</title>
  <desc id="desc">Ilustración de dashboard para metadatos sociales y PWA.</desc>
  <defs>
    <linearGradient id="bg" x1="0" y1="0" x2="1440" y2="900" gradientUnits="userSpaceOnUse">
      <stop offset="0" stop-color="#F6FAFF" />
      <stop offset="0.55" stop-color="#E8F0FF" />
      <stop offset="1" stop-color="#F7FBF5" />
    </linearGradient>
    <linearGradient id="panel" x1="160" y1="120" x2="1280" y2="780" gradientUnits="userSpaceOnUse">
      <stop offset="0" stop-color="#FFFFFF" />
      <stop offset="1" stop-color="#F4F8FF" />
    </linearGradient>
    <linearGradient id="accent" x1="0" y1="0" x2="1" y2="1">
      <stop offset="0" stop-color="#213E99" />
      <stop offset="1" stop-color="#1B7A5A" />
    </linearGradient>
  </defs>
  <rect width="1440" height="900" fill="url(#bg)" />
  <circle cx="220" cy="164" r="170" fill="#7CD966" fill-opacity="0.16" />
  <circle cx="1240" cy="168" r="190" fill="#213E99" fill-opacity="0.1" />
  <circle cx="1110" cy="752" r="220" fill="#1B7A5A" fill-opacity="0.12" />
  <rect x="124" y="92" width="1192" height="716" rx="40" fill="url(#panel)" stroke="#D9E6FF" stroke-width="2" />
  <rect x="124" y="92" width="1192" height="88" rx="40" fill="#213E99" />
  <circle cx="182" cy="136" r="12" fill="#7CD966" />
  <rect x="222" y="125" width="184" height="18" rx="9" fill="#FFFFFF" fill-opacity="0.78" />
  <rect x="181" y="222" width="214" height="532" rx="28" fill="#EEF4FF" />
  <rect x="417" y="222" width="660" height="120" rx="28" fill="#FFFFFF" stroke="#DDE7FB" />
  <rect x="1105" y="222" width="167" height="120" rx="28" fill="#FFFFFF" stroke="#DDE7FB" />
  <rect x="417" y="364" width="296" height="214" rx="28" fill="#FFFFFF" stroke="#DDE7FB" />
  <rect x="733" y="364" width="539" height="214" rx="28" fill="#FFFFFF" stroke="#DDE7FB" />
  <rect x="417" y="600" width="855" height="154" rx="28" fill="#FFFFFF" stroke="#DDE7FB" />
  <rect x="214" y="268" width="118" height="18" rx="9" fill="#213E99" fill-opacity="0.18" />
  <rect x="214" y="308" width="96" height="14" rx="7" fill="#213E99" fill-opacity="0.12" />
  <rect x="214" y="344" width="132" height="14" rx="7" fill="#213E99" fill-opacity="0.12" />
  <rect x="214" y="380" width="110" height="14" rx="7" fill="#213E99" fill-opacity="0.12" />
  <rect x="214" y="452" width="132" height="132" rx="24" fill="url(#accent)" />
  <rect x="374" y="270" width="146" height="18" rx="9" fill="#213E99" fill-opacity="0.18" />
  <rect x="374" y="302" width="184" height="18" rx="9" fill="#213E99" fill-opacity="0.08" />
  <rect x="374" y="320" width="160" height="18" rx="9" fill="#213E99" fill-opacity="0.08" />
  <path d="M758 520C792 490 814 466 847 466C882 466 895 520 932 520C967 520 978 472 1012 472C1042 472 1066 500 1098 500C1130 500 1155 462 1191 462" stroke="#213E99" stroke-width="10" stroke-linecap="round" stroke-linejoin="round" />
  <path d="M758 520C792 490 814 466 847 466C882 466 895 520 932 520C967 520 978 472 1012 472C1042 472 1066 500 1098 500C1130 500 1155 462 1191 462" stroke="#7CD966" stroke-width="4" stroke-linecap="round" stroke-linejoin="round" />
  <rect x="446" y="634" width="176" height="16" rx="8" fill="#213E99" fill-opacity="0.16" />
  <rect x="446" y="672" width="248" height="14" rx="7" fill="#213E99" fill-opacity="0.09" />
  <rect x="740" y="634" width="176" height="16" rx="8" fill="#213E99" fill-opacity="0.16" />
  <rect x="740" y="672" width="248" height="14" rx="7" fill="#213E99" fill-opacity="0.09" />
  <rect x="1034" y="634" width="176" height="16" rx="8" fill="#213E99" fill-opacity="0.16" />
  <rect x="1034" y="672" width="158" height="14" rx="7" fill="#213E99" fill-opacity="0.09" />
</svg>